<svg width="22" height="22" viewBox="0 0 22 22" fill="none" xmlns="http://www.w3.org/2000/svg">
<g id="Frame" clip-path="url(#clip0_1_616)">
<g id="Group">
<path id="Vector" d="M19.3868 6.17501C18.1399 4.27195 16.1876 3.07219 14.0929 2.73433C14.1143 2.58953 14.0929 2.43094 14.0145 2.29304C13.8649 2.03102 13.5585 1.88622 13.245 1.94828L8.92013 2.81017L8.32163 1.03122C8.23613 0.7761 8.001 0.589931 7.72313 0.56235C7.44525 0.53477 7.1745 0.665778 7.032 0.900213L5.74238 3.03082C4.866 2.38267 3.79013 1.94138 2.7 1.94138C2.30813 1.94138 1.9875 2.25166 1.9875 2.6309C1.9875 3.01013 2.30813 3.32042 2.7 3.32042C3.5265 3.32042 4.353 3.70654 5.0085 4.22368L0.883129 6.88521C0.619504 7.0507 0.505504 7.36787 0.598129 7.65747C0.683629 7.94707 0.961504 8.14703 1.275 8.14703H3.17738L2.00888 12.098C1.92338 12.4013 2.05163 12.7185 2.3295 12.8771C2.4435 12.9461 2.57175 12.9667 2.7 12.9667C2.71425 15.2215 3.74738 17.4072 5.64975 18.8138C8.46413 20.8893 12.561 21.9442 17.8335 21.9442C18.033 21.9442 18.2325 21.9442 18.432 21.9374C20.085 21.9098 21.4886 20.6893 21.6953 19.0965C22.3721 13.8907 21.5955 9.54675 19.3868 6.17501ZM20.2845 18.9242C20.1634 19.8412 19.3654 20.5445 18.4178 20.5583C13.1809 20.6342 9.17663 19.6826 6.519 17.7175C4.65225 16.3385 3.81863 14.0286 4.23188 11.8084L5.25788 10.8499C4.31738 13.1253 4.99425 15.7248 6.95363 17.1728C9.38325 18.9655 13.0455 19.8757 17.8335 19.8757C18.0259 19.8757 18.2183 19.8757 18.4178 19.8688C18.8096 19.8619 19.1231 19.5447 19.116 19.1655C19.1089 18.7863 18.7883 18.4898 18.4035 18.4898C18.3964 18.4898 18.3964 18.4898 18.3893 18.4898C13.6511 18.5725 10.0886 17.7451 7.82288 16.0765C6.29813 14.9526 5.82788 12.8495 6.71138 11.0844L8.55675 13.4011C8.685 13.5666 8.89875 13.6632 9.1125 13.6632C9.19088 13.6632 9.26925 13.6494 9.3405 13.6287C9.63263 13.5321 9.825 13.2701 9.825 12.9736V8.06429L14.898 7.45062C15.2186 7.40925 15.4751 7.16791 15.5179 6.85763C15.5606 6.54735 15.3825 6.25086 15.0833 6.12675L12.0765 4.93388L12.9885 4.01683C15.0191 4.0513 16.9928 5.08558 18.1826 6.9059C20.2061 10.0087 20.9186 14.0493 20.2845 18.9242ZM5.94188 5.27175C5.95613 5.26485 5.95613 5.25796 5.96325 5.25106C6.15563 5.54755 6.2625 5.83715 6.2625 6.07848C6.2625 6.45771 6.58313 6.768 6.975 6.768C7.36688 6.768 7.6875 6.45771 7.6875 6.07848C7.6875 5.42344 7.3455 4.68566 6.78975 4.01683L7.45238 2.9205L7.75875 3.83066C7.87275 4.16852 8.229 4.36158 8.57813 4.29263L11.2643 3.75481L10.3095 4.71324C10.1456 4.87872 10.0744 5.11316 10.1243 5.3338C10.1741 5.55445 10.3309 5.74062 10.5518 5.83025L12.0195 6.40945L9.01988 6.77489C8.67075 6.81626 8.4 7.11275 8.4 7.45751V10.9465L6.61875 8.70554C6.49763 8.54695 6.30525 8.45041 6.10575 8.43662C6.0915 8.43662 6.07013 8.43662 6.05588 8.43662C5.87063 8.43662 5.6925 8.50558 5.55713 8.62969L4.11788 9.98114L4.809 7.63679C4.87313 7.43683 4.83038 7.21618 4.695 7.0438C4.55963 6.87142 4.34588 6.768 4.125 6.768H3.62625L5.94188 5.27175Z" fill="#359740"/>
<path id="Vector_2" d="M12.1691 10.7053C12.3116 10.8363 12.4897 10.9053 12.675 10.9053C12.8602 10.9053 13.0384 10.8363 13.1809 10.7053C13.4587 10.4364 13.4587 10.002 13.1809 9.73312L12.4684 9.0436C12.1905 8.77469 11.7416 8.77469 11.4638 9.0436C11.1859 9.31251 11.1859 9.74691 11.4638 10.0158L12.1691 10.7053Z" fill="#359740"/>
<path id="Vector_3" d="M16.4441 10.0158C16.5866 10.1468 16.7647 10.2157 16.95 10.2157C17.1352 10.2157 17.3134 10.1468 17.4559 10.0158C17.7337 9.74685 17.7337 9.31245 17.4559 9.04354L16.7434 8.35403C16.4655 8.08512 16.0166 8.08512 15.7387 8.35403C15.4609 8.62294 15.4609 9.05733 15.7387 9.32624L16.4441 10.0158Z" fill="#359740"/>
<path id="Vector_4" d="M13.1809 14.5528L12.4684 13.8633C12.1905 13.5944 11.7416 13.5944 11.4638 13.8633C11.1859 14.1322 11.1859 14.5666 11.4638 14.8355L12.1762 15.525C12.3116 15.6629 12.4897 15.7319 12.675 15.7319C12.8602 15.7319 13.0384 15.6629 13.1809 15.5319C13.4587 15.263 13.4587 14.8217 13.1809 14.5528Z" fill="#359740"/>
<path id="Vector_5" d="M15.0191 13.4634C15.1616 13.5944 15.3397 13.6634 15.525 13.6634C15.7102 13.6634 15.8884 13.5944 16.0309 13.4634C16.3087 13.1945 16.3087 12.7601 16.0309 12.4912L15.3184 11.8017C15.0405 11.5327 14.5916 11.5327 14.3137 11.8017C14.0359 12.0706 14.0359 12.505 14.3137 12.7739L15.0191 13.4634Z" fill="#359740"/>
<path id="Vector_6" d="M17.8691 13.4635L18.5816 14.153C18.7241 14.284 18.9023 14.3529 19.0875 14.3529C19.2728 14.3529 19.4509 14.284 19.5934 14.153C19.8713 13.8841 19.8713 13.4497 19.5934 13.1807L18.8809 12.4912C18.603 12.2223 18.1541 12.2223 17.8763 12.4912C17.5913 12.7532 17.5913 13.1945 17.8691 13.4635Z" fill="#359740"/>
<path id="Vector_7" d="M16.7434 15.2423C16.4655 14.9734 16.0166 14.9734 15.7387 15.2423C15.4609 15.5112 15.4609 15.9456 15.7387 16.2145L16.4512 16.9041C16.5866 17.042 16.7647 17.1109 16.95 17.1109C17.1352 17.1109 17.3134 17.042 17.4559 16.911C17.7337 16.642 17.7337 16.2077 17.4559 15.9387L16.7434 15.2423Z" fill="#359740"/>
</g>
</g>
<defs>
<clipPath id="clip0_1_616">
<rect width="21.375" height="21.375" fill="white" transform="translate(0.5625 0.5625)"/>
</clipPath>
</defs>
</svg>
