<svg width="24" height="24" viewBox="0 0 24 24" fill="none" xmlns="http://www.w3.org/2000/svg">
<g id="icon_cart_simple">
<path id="Vector" d="M8.88666 21.3333C9.71509 21.3333 10.3867 20.6617 10.3867 19.8333C10.3867 19.0049 9.71509 18.3333 8.88666 18.3333C8.05823 18.3333 7.38666 19.0049 7.38666 19.8333C7.38666 20.6617 8.05823 21.3333 8.88666 21.3333Z" fill="#359740"/>
<path id="Vector_2" d="M18 21.3333C18.8284 21.3333 19.5 20.6617 19.5 19.8333C19.5 19.0049 18.8284 18.3333 18 18.3333C17.1716 18.3333 16.5 19.0049 16.5 19.8333C16.5 20.6617 17.1716 21.3333 18 21.3333Z" fill="#359740"/>
<path id="Vector_3" d="M22.0533 3.57997C21.9913 3.5035 21.9131 3.44171 21.8243 3.39906C21.7356 3.35641 21.6385 3.33396 21.54 3.3333H7.66001L8.09335 4.66664H20.6667L18.8867 12.6666H8.88668L5.84001 3.01997C5.80706 2.91761 5.74983 2.82474 5.67321 2.74928C5.5966 2.67383 5.50287 2.61803 5.40001 2.58664L2.66668 1.74664C2.58263 1.72081 2.49432 1.71179 2.40679 1.72009C2.31926 1.7284 2.23422 1.75386 2.15653 1.79502C1.99962 1.87817 1.88217 2.02023 1.83001 2.18997C1.77785 2.35971 1.79526 2.54322 1.8784 2.70012C1.96154 2.85703 2.10361 2.97448 2.27335 3.02664L4.66668 3.75997L7.72668 13.4266L6.63335 14.32L6.54668 14.4066C6.27624 14.7183 6.12295 15.1145 6.11321 15.527C6.10348 15.9396 6.23791 16.3426 6.49335 16.6666C6.67505 16.8876 6.90595 17.063 7.16757 17.1788C7.42919 17.2945 7.71427 17.3474 8.00001 17.3333H19.1267C19.3035 17.3333 19.4731 17.2631 19.5981 17.138C19.7231 17.013 19.7933 16.8434 19.7933 16.6666C19.7933 16.4898 19.7231 16.3203 19.5981 16.1952C19.4731 16.0702 19.3035 16 19.1267 16H7.89335C7.81658 15.9973 7.74178 15.975 7.67619 15.935C7.61059 15.895 7.55641 15.8388 7.51888 15.7718C7.48134 15.7048 7.46173 15.6292 7.46193 15.5524C7.46213 15.4756 7.48213 15.4001 7.52001 15.3333L9.12668 14H19.42C19.5741 14.0037 19.7248 13.954 19.8463 13.8592C19.9679 13.7644 20.0528 13.6304 20.0867 13.48L22.2 4.14664C22.2203 4.04725 22.2176 3.94455 22.1922 3.84635C22.1668 3.74815 22.1193 3.65704 22.0533 3.57997V3.57997Z" fill="#359740"/>
</g>
</svg>
